<svg id="Layer_88" data-name="Layer 88" xmlns="http://www.w3.org/2000/svg" xmlns:xlink="http://www.w3.org/1999/xlink" viewBox="0 0 513.48 513.58"><defs><style>.cls-1-88{fill:url(#linear-gradient);}.cls-2-88{fill:#fff;}</style><linearGradient id="linear-gradient" x1="-30.96" y1="578.55" x2="-20.41" y2="589.89" gradientTransform="translate(-22726.5 -829.95) rotate(-90) scale(42.28 39.34)" gradientUnits="userSpaceOnUse"><stop offset="0" stop-color="#fd5"></stop><stop offset="0.5" stop-color="#ff543e"></stop><stop offset="1" stop-color="#c837ab"></stop></linearGradient></defs><path class="cls-1-88" d="M32,34.84C-8.23,76.63,0,121,0,255.89c0,112-19.54,224.28,82.73,250.71,31.94,8.22,314.9,8.22,346.8,0,42.58-11,77.22-45.53,82-105.75.66-8.4.66-281.28,0-289.86-5-64.14-44.53-101.12-96.56-108.6C403,.62,400.6.11,339.41,0,122.39.11,74.82-9.56,32,34.84Z" transform="translate(1.49 0.82)"></path><path class="cls-2-88" d="M256,67c-77.46,0-151-6.9-179.12,65.21C65.24,162,66.92,200.64,66.92,256c0,48.6-1.55,94.27,9.92,123.82,28,72.15,102.19,65.24,179.07,65.24,74.18,0,150.66,7.72,179.1-65.24,11.62-30.08,9.92-68.18,9.92-123.82,0-73.85,4.07-121.53-31.75-157.33C376.92,62.42,327.87,67,255.87,67ZM239,101c161.58-.25,182.14-18.21,170.79,231.32-4,88.26-71.23,78.57-153.83,78.57-150.61,0-154.95-4.31-154.95-155C101,103.51,113,101.12,239,101Zm117.84,31.39a22.68,22.68,0,1,0,22.68,22.67A22.67,22.67,0,0,0,356.86,132.42ZM256,158.93A97.08,97.08,0,1,0,353,256a97.09,97.09,0,0,0-97-97.09ZM256,193c83.3,0,83.41,126,0,126S172.54,193,256,193Z" transform="translate(1.49 0.82)"></path></svg>