<svg id="Capa_34" data-name="Capa 34" xmlns="http://www.w3.org/2000/svg" viewBox="0 0 490.66 403.26"><defs><style>.cls-34{fill:#03a9f4;}</style></defs><path class="cls-34" d="M487.84,92.93A10.66,10.66,0,0,0,475,90.67a91.62,91.62,0,0,1-13.63,4.93,95.94,95.94,0,0,0,16.21-31.21A10.66,10.66,0,0,0,461.2,52.91,224.34,224.34,0,0,1,409.87,73,107.35,107.35,0,0,0,275.36,62.6a105.84,105.84,0,0,0-46.08,97.81A252.59,252.59,0,0,1,52.38,65.13a11.07,11.07,0,0,0-9.06-4,10.72,10.72,0,0,0-8.54,5.21A103.24,103.24,0,0,0,23,146.5a114.07,114.07,0,0,0,18.54,38.76,56.7,56.7,0,0,1-10.84-6.93,10.67,10.67,0,0,0-17.39,8.28,110.33,110.33,0,0,0,56.84,94.72,78.57,78.57,0,0,1-13.74-2.95A10.66,10.66,0,0,0,43.62,293a116.4,116.4,0,0,0,80.81,66.14A188,188,0,0,1,11.89,382.28,10.51,10.51,0,0,0,.52,389.57a10.69,10.69,0,0,0,4.91,12.59A319.69,319.69,0,0,0,163.08,447,270.8,270.8,0,0,0,312.72,401.2c84.54-56.11,137.23-156.84,129.89-247A199.1,199.1,0,0,0,489,105.88,10.67,10.67,0,0,0,487.84,92.93Z" transform="translate(0 -43.7)"></path></svg>