<svg height="512pt" viewBox="0 -70 512 511" width="512pt" xmlns="http://www.w3.org/2000/svg"><path d="m167.425781 64.53125c0 35.363281-28.667969 64.027344-64.03125 64.027344-35.359375 0-64.027343-28.664063-64.027343-64.027344s28.667968-64.03125 64.027343-64.03125c35.363281 0 64.03125 28.667969 64.03125 64.03125zm0 0" fill="#bebfc0"/><path d="m136.300781 92.296875c-33.507812 0-60.671875-27.160156-60.671875-60.667969 0-9.917968 2.394532-19.269531 6.613282-27.535156-24.964844 8.738281-42.875 32.488281-42.875 60.4375 0 35.363281 28.664062 64.027344 64.027343 64.027344 27.949219 0 51.699219-17.910156 60.4375-42.875-8.265625 4.21875-17.617187 6.613281-27.53125 6.613281zm0 0" fill="#a9aaab"/><path d="m128.636719 64.53125c0 13.9375-11.300781 25.238281-25.242188 25.238281-13.9375 0-25.238281-11.300781-25.238281-25.238281 0-13.941406 11.300781-25.242188 25.238281-25.242188 13.941407 0 25.242188 11.300782 25.242188 25.242188zm0 0" fill="#495059"/><path d="m80.164062 54.65625c-1.289062 3.03125-2.007812 6.371094-2.007812 9.875 0 13.9375 11.300781 25.238281 25.238281 25.238281 3.507813 0 6.84375-.714843 9.875-2.007812-14.980469-6.152344-26.953125-18.125-33.105469-33.105469zm0 0" fill="#41464f"/><path d="m346.214844 64.53125c0 35.363281-28.667969 64.027344-64.03125 64.027344-35.363282 0-64.03125-28.664063-64.03125-64.027344s28.667968-64.03125 64.03125-64.03125c35.363281 0 64.03125 28.667969 64.03125 64.03125zm0 0" fill="#bebfc0"/><path d="m315.089844 92.296875c-33.511719 0-60.671875-27.160156-60.671875-60.667969 0-9.917968 2.394531-19.269531 6.609375-27.535156-24.960938 8.738281-42.875 32.488281-42.875 60.4375 0 35.363281 28.667968 64.027344 64.03125 64.027344 27.949218 0 51.699218-17.910156 60.4375-42.875-8.265625 4.21875-17.617188 6.613281-27.53125 6.613281zm0 0" fill="#a9aaab"/><path d="m307.421875 64.53125c0 13.9375-11.296875 25.238281-25.238281 25.238281-13.9375 0-25.238282-11.300781-25.238282-25.238281 0-13.941406 11.300782-25.242188 25.238282-25.242188 13.941406 0 25.238281 11.300782 25.238281 25.242188zm0 0" fill="#495059"/><path d="m258.953125 54.65625c-1.292969 3.03125-2.007813 6.371094-2.007813 9.875 0 13.9375 11.300782 25.238281 25.238282 25.238281 3.503906 0 6.839844-.714843 9.875-2.007812-14.980469-6.152344-26.953125-18.125-33.105469-33.105469zm0 0" fill="#41464f"/><path d="m475.398438 155.910156-89.820313 37.136719v96.300781l89.820313 37.136719c17.433593 7.207031 36.601562-5.609375 36.601562-24.476563v-121.625c0-18.867187-19.167969-31.679687-36.601562-24.472656zm0 0" fill="#495059"/><path d="m414.980469 180.890625-29.398438 12.15625v96.300781l62.757813 25.949219c-26.886719-33.960937-32.28125-84.929687-33.359375-134.40625zm0 0" fill="#41464f"/><path d="m475.398438 155.910156-12.496094 5.167969v160.238281l12.496094 5.167969c17.433593 7.207031 36.601562-5.609375 36.601562-24.476563v-121.625c0-18.867187-19.167969-31.679687-36.601562-24.472656zm0 0" fill="#bebfc0"/><path d="m333.457031 358.050781c-92.816406 18.96875-188.515625 18.96875-281.335937 0-30.335938-6.199219-52.121094-32.890625-52.121094-63.851562v-103.101563c0-30.964844 21.785156-57.652344 52.121094-63.851562 92.820312-18.96875 188.519531-18.96875 281.335937 0 30.335938 6.199218 52.121094 32.886718 52.121094 63.851562v103.101563c.003906 30.960937-21.785156 57.652343-52.121094 63.851562zm0 0" fill="#eeeeed"/><path d="m333.457031 358.050781c11.128907-2.273437 21.097657-7.3125 29.269531-14.296875-180.082031.671875-213.347656-146.695312-207.132812-229.742187-34.691406 1.839843-69.277344 6.246093-103.472656 13.234375-30.335938 6.199218-52.121094 32.886718-52.121094 63.851562v103.101563c0 30.964843 21.785156 57.652343 52.121094 63.851562 92.820312 18.96875 188.519531 18.96875 281.335937 0zm0 0" fill="#dfdfdd"/><path d="m147.828125 212.125v61.046875c0 14.425781 15.179687 23.804687 28.082031 17.355469l57.988282-28.996094c15.5625-7.78125 15.5625-29.988281 0-37.769531l-57.988282-28.992188c-12.902344-6.453125-28.082031 2.929688-28.082031 17.355469zm0 0" fill="#eb8d9a"/><path d="m175.910156 290.527344 25.910156-12.957032c-20.640624-25.171874-33.136718-54.847656-39.980468-84.089843-7.828125 2.296875-14.011719 9.4375-14.011719 18.644531v61.046875c0 14.425781 15.179687 23.804687 28.082031 17.355469zm0 0" fill="#d67c88"/></svg>