<svg xmlns="http://www.w3.org/2000/svg" xmlns:xlink="http://www.w3.org/1999/xlink" preserveAspectRatio="xMidYMid" width="31.953" height="31.953" viewBox="0 0 508 508">
  <defs>
    <style>
      .cls-1 {
        fill: url(#linear-gradient-1);
      }

      .cls-1, .cls-2, .cls-3, .cls-5 {
        fill-rule: evenodd;
      }

      .cls-2 {
        fill: #2f5353;
      }

      .cls-3 {
        fill: url(#linear-gradient-2);
      }

      .cls-4 {
        filter: url(#drop-shadow-1);
      }

      .cls-5 {
        fill: #fefefe;
        filter: url(#drop-shadow-2);
      }
    </style>

    <linearGradient id="linear-gradient-1" gradientUnits="userSpaceOnUse" x1="257.391" y1="454.438" x2="257.391" y2="48.312">
      <stop offset="-0.05" stop-color="#20b038"/>
      <stop offset="1.05" stop-color="#67d670"/>
    </linearGradient>
    <linearGradient id="linear-gradient-2" gradientUnits="userSpaceOnUse" x1="257.39" y1="461.719" x2="257.39" y2="41.031">
      <stop offset="0" stop-color="#f9f9f9"/>
      <stop offset="1" stop-color="#fff"/>
    </linearGradient>
    <filter id="drop-shadow-1" filterUnits="userSpaceOnUse">
      <feOffset dy="5" in="SourceAlpha"/>
      <feGaussianBlur stdDeviation="4" result="dropBlur"/>
      <feFlood flood-opacity="0.06"/>
      <feComposite operator="in" in2="dropBlur" result="dropShadowComp"/>
      <feComposite in="SourceGraphic" result="shadowed"/>
    </filter>
    <filter id="drop-shadow-2" filterUnits="userSpaceOnUse">
      <feOffset in="SourceAlpha"/>
      <feGaussianBlur stdDeviation="2.236" result="dropBlur"/>
      <feFlood flood-opacity="0.07"/>
      <feComposite operator="in" in2="dropBlur" result="dropShadowComp"/>
      <feComposite in="SourceGraphic" result="shadowed"/>
    </filter>
  </defs>
  <g>
    <path d="M54.526,454.430 L83.186,350.145 C65.509,319.626 56.206,285.003 56.221,249.535 C56.265,138.574 146.890,48.301 258.241,48.301 C312.283,48.321 363.006,69.281 401.147,107.319 C439.289,145.359 460.282,195.922 460.261,249.696 C460.216,360.656 369.583,450.940 258.243,450.940 C258.236,450.940 258.250,450.940 258.243,450.940 L258.160,450.940 C224.349,450.928 191.127,442.477 161.620,426.445 L54.526,454.430 Z" class="cls-1"/>
    <path d="M17.000,488.000 C13.750,484.750 9.496,471.838 15.384,451.104 C26.452,410.169 39.439,362.142 39.439,362.142 C17.614,324.503 9.171,291.942 9.190,248.198 C9.244,111.350 121.128,0.015 258.598,0.015 C325.317,0.042 387.939,25.890 435.027,72.803 C482.116,119.717 508.034,182.077 508.007,248.394 C507.953,385.245 396.059,496.592 258.602,496.592 C258.593,496.592 258.609,496.592 258.601,496.592 L258.499,496.592 C216.756,496.575 171.685,484.127 152.495,470.440 C152.495,470.440 96.012,484.350 51.798,495.238 C28.695,500.241 20.250,491.250 17.000,488.000 ZM155.578,428.545 L163.148,433.016 C194.975,451.814 221.319,454.658 258.516,454.674 L258.601,454.674 C372.859,454.674 465.852,362.132 465.898,248.380 C465.920,193.259 444.378,141.426 405.240,102.434 C366.101,63.441 314.053,41.955 258.683,41.935 C144.338,41.935 51.345,134.470 51.299,248.213 C51.283,287.190 56.159,311.972 76.910,344.819 L81.839,352.622 L52.785,456.124 L155.578,428.545 Z" class="cls-2"/>
    <path d="M47.250,461.714 L76.938,353.689 C58.626,322.075 48.990,286.211 49.005,249.470 C49.051,134.529 142.927,41.017 258.271,41.017 C314.252,41.040 366.794,62.750 406.304,102.152 C445.813,141.556 467.560,193.933 467.537,249.634 C467.491,364.577 373.607,458.098 258.274,458.098 C258.267,458.098 258.280,458.098 258.273,458.098 L258.188,458.098 C223.164,458.084 188.750,449.333 158.185,432.726 L47.250,461.714 ZM163.325,394.984 L169.676,398.739 C196.380,414.527 226.992,422.878 258.202,422.891 L258.273,422.891 C354.141,422.891 432.167,345.164 432.205,249.622 C432.224,203.325 414.149,159.790 381.311,127.040 C348.471,94.289 304.801,76.242 258.342,76.226 C162.402,76.226 84.375,153.947 84.337,249.481 C84.324,282.219 93.520,314.105 110.930,341.694 L115.066,348.247 L97.495,412.186 L163.325,394.984 Z" class="cls-3"/>
    <path d="M205.970,162.324 C202.054,153.647 197.933,153.471 194.206,153.319 C191.158,153.192 187.670,153.199 184.185,153.199 C180.699,153.199 175.034,154.504 170.241,159.720 C165.448,164.932 151.941,177.534 151.941,203.172 C151.941,228.810 170.677,253.580 173.291,257.055 C175.905,260.533 209.466,314.825 262.614,335.709 C306.783,353.063 315.772,349.613 325.358,348.744 C334.943,347.875 356.294,336.143 360.651,323.976 C365.008,311.808 365.008,301.380 363.701,299.205 C362.394,297.033 358.908,295.730 353.679,293.123 C348.450,290.515 322.743,277.912 317.950,276.175 C313.158,274.437 309.672,273.568 306.186,278.783 C302.700,283.997 292.679,295.730 289.628,299.205 C286.578,302.683 283.528,303.119 278.300,300.511 C273.071,297.903 256.223,292.403 236.251,274.657 C220.708,260.846 210.213,243.786 207.163,238.570 C204.113,233.358 206.838,230.537 209.456,227.942 C211.808,225.607 214.685,221.857 217.299,218.815 C219.913,215.775 220.785,213.603 222.528,210.125 C224.270,206.649 223.399,203.607 222.092,200.999 C220.785,198.393 210.620,172.627 205.970,162.324 Z" class="cls-5"/>
  </g>
</svg>
